<?xml version="1.0" encoding="UTF-8" standalone="no"?>
<svg
   xmlns:dc="http://purl.org/dc/elements/1.1/"
   xmlns:cc="http://creativecommons.org/ns#"
   xmlns:rdf="http://www.w3.org/1999/02/22-rdf-syntax-ns#"
   xmlns:svg="http://www.w3.org/2000/svg"
   xmlns="http://www.w3.org/2000/svg"
   xmlns:sodipodi="http://sodipodi.sourceforge.net/DTD/sodipodi-0.dtd"
   xmlns:inkscape="http://www.inkscape.org/namespaces/inkscape"
   viewBox="-20 -20 64 64"
   width="64"
   height="64"
   version="1.1"
   id="svg6"
   sodipodi:docname="octoface2.svg"
   inkscape:version="1.0 (4035a4fb49, 2020-05-01)">
  <metadata
     id="metadata12">
    <rdf:RDF>
      <cc:Work
         rdf:about="">
        <dc:format>image/svg+xml</dc:format>
        <dc:type
           rdf:resource="http://purl.org/dc/dcmitype/StillImage" />
        <dc:title></dc:title>
        <cc:license
           rdf:resource="MIT" />
      </cc:Work>
    </rdf:RDF>
  </metadata>
  <defs
     id="defs10" />
  <sodipodi:namedview
     inkscape:document-rotation="0"
     pagecolor="#ffffff"
     bordercolor="#666666"
     borderopacity="1"
     objecttolerance="10"
     gridtolerance="10"
     guidetolerance="10"
     inkscape:pageopacity="0"
     inkscape:pageshadow="2"
     inkscape:window-width="1680"
     inkscape:window-height="997"
     id="namedview8"
     showgrid="false"
     fit-margin-top="0"
     fit-margin-bottom="0"
     fit-margin-right="0"
     fit-margin-left="0"
     lock-margins="true"
     viewbox-x="-12"
     viewbox-y="-12"
     inkscape:zoom="3.828125"
     inkscape:cx="89.264269"
     inkscape:cy="52.076283"
     inkscape:window-x="-8"
     inkscape:window-y="-8"
     inkscape:window-maximized="1"
     inkscape:current-layer="svg6" />
  <path
     d="M 7.75,11 C 7.06,11 6.5,11.56 6.5,12.25 v 1.5 a 1.25,1.25 0 1 0 2.5,0 v -1.5 C 9,11.56 8.44,11 7.75,11 Z m 1.27,4.5 A 0.469,0.469 0 0 1 9.5,15 h 5 a 0.47,0.47 0 0 1 0.48,0.5 C 14.864,16.816 14.221,18 12,18 9.779,18 9.136,16.816 9.02,15.5 Z M 16.25,11 C 15.56,11 15,11.56 15,12.25 v 1.5 a 1.25,1.25 0 1 0 2.5,0 v -1.5 C 17.5,11.56 16.94,11 16.25,11 Z"
     id="path2" />
  <path
     fill-rule="evenodd"
     d="M 21.255,3.82 A 1.725,1.725 0 0 0 19.114,2.625 c -0.557,0.16 -1.406,0.44 -2.264,0.866 -0.78,0.386 -1.647,0.93 -2.293,1.677 A 18.442,18.442 0 0 0 12,5 C 11.07,5 10.216,5.059 9.431,5.17 8.786,4.43 7.926,3.89 7.151,3.506 A 13.876,13.876 0 0 0 4.886,2.64 1.725,1.725 0 0 0 2.745,3.836 23.645,23.645 0 0 0 2.055,7.128 C 1.93,8.098 1.864,9.198 1.989,10.24 1.254,11.882 1,13.734 1,15.527 1,19.915 3.13,23 12,23 c 8.87,0 11,-3.053 11,-7.473 0,-1.794 -0.255,-3.647 -0.99,-5.29 0.127,-1.046 0.06,-2.15 -0.066,-3.125 A 23.652,23.652 0 0 0 21.255,3.82 Z M 20.5,14 C 21,17.5 19,20.5 12,20.5 5,20.5 3,17.5 3.5,14 4.083,10 6.5,8 12,8 c 5.5,0 7.928,2 8.5,6 z"
     id="path4" />
</svg>
