<?xml version="1.0" encoding="UTF-8" standalone="no"?>
<svg
   xmlns:dc="http://purl.org/dc/elements/1.1/"
   xmlns:cc="http://creativecommons.org/ns#"
   xmlns:rdf="http://www.w3.org/1999/02/22-rdf-syntax-ns#"
   xmlns:svg="http://www.w3.org/2000/svg"
   xmlns="http://www.w3.org/2000/svg"
   xmlns:sodipodi="http://sodipodi.sourceforge.net/DTD/sodipodi-0.dtd"
   xmlns:inkscape="http://www.inkscape.org/namespaces/inkscape"
   inkscape:version="1.0 (4035a4fb49, 2020-05-01)"
   sodipodi:docname="octoface2.svg"
   id="svg6"
   version="1.1"
   height="64"
   width="64"
   viewBox="-20 -20 64 64">
  <metadata
     id="metadata12">
    <rdf:RDF>
      <cc:Work
         rdf:about="">
        <dc:format>image/svg+xml</dc:format>
        <dc:type
           rdf:resource="http://purl.org/dc/dcmitype/StillImage" />
        <dc:title></dc:title>
        <cc:license
           rdf:resource="MIT" />
      </cc:Work>
    </rdf:RDF>
  </metadata>
  <defs
     id="defs10" />
  <sodipodi:namedview
     inkscape:current-layer="svg6"
     inkscape:window-maximized="1"
     inkscape:window-y="-8"
     inkscape:window-x="-8"
     inkscape:cy="52.076283"
     inkscape:cx="89.264269"
     inkscape:zoom="3.828125"
     viewbox-y="-12"
     viewbox-x="-12"
     lock-margins="true"
     fit-margin-left="0"
     fit-margin-right="0"
     fit-margin-bottom="0"
     fit-margin-top="0"
     showgrid="false"
     id="namedview8"
     inkscape:window-height="997"
     inkscape:window-width="1680"
     inkscape:pageshadow="2"
     inkscape:pageopacity="0"
     guidetolerance="10"
     gridtolerance="10"
     objecttolerance="10"
     borderopacity="1"
     bordercolor="#666666"
     pagecolor="#ffffff"
     inkscape:document-rotation="0" />
  <path
     id="path2"
     d="m 8.0593075,14.481725 c -0.4879038,0.487904 -0.4879033,1.279864 0,1.767767 l 1.0606603,1.06066 A 1.25,1.25 0 1 0 10.887735,15.542386 L 9.8270746,14.481725 c -0.4879035,-0.487903 -1.2798635,-0.487904 -1.7677671,0 z m 4.0800055,2.283955 a 0.469,0.469 0 0 1 -0.01414,-0.692964 l 3.535534,-3.535534 a 0.47,0.47 0 0 1 0.692964,0.01414 c 0.848529,1.012577 1.231074,2.304461 -0.33941,3.874945 -1.570484,1.570484 -2.862368,1.187939 -3.874946,0.339411 z m 1.930402,-8.2943618 c -0.487903,0.4879036 -0.487904,1.2798634 0,1.7677678 l 1.060661,1.060659 A 1.25,1.25 0 1 0 16.898143,9.5319787 L 15.837482,8.4713179 c -0.487904,-0.4879033 -1.279864,-0.4879034 -1.767767,3e-7 z" />
  <path
     id="path4"
     d="M 12.531758,-0.14477814 A 1.725,1.725 0 0 0 10.172849,0.524145 C 9.8921287,1.0311402 9.4897846,1.829464 9.1843142,2.7373889 8.9057149,3.5618752 8.6773194,4.5596029 8.7487367,5.544603 A 18.442,18.442 0 0 0 6.8218705,7.233881 C 6.1642612,7.8914904 5.6021113,8.5370788 5.1255214,9.1706464 4.1461786,9.1034713 3.1562291,9.3297454 2.3366924,9.6062241 A 13.876,13.876 0 0 0 0.12274104,10.595467 1.725,1.725 0 0 0 -0.54547489,12.955082 23.645,23.645 0 0 0 1.294417,15.770781 c 0.597505,0.774281 1.3286538,1.598769 2.1538472,2.247185 0.6413456,1.680793 1.7713027,3.16996 3.039145,4.437802 C 9.590194,25.558553 13.277756,26.23384 19.549793,19.961803 25.821829,13.689766 25.169171,10.024832 22.043759,6.8994193 20.775208,5.6308701 19.284628,4.5009136 17.603128,3.8588607 16.953296,3.0294242 16.125275,2.2961542 15.34675,1.6958205 A 23.652,23.652 0 0 0 12.531758,-0.14477814 Z M 19.196239,7.5874346 C 22.024667,9.7087551 22.731773,13.244289 17.782026,18.194036 12.832278,23.143784 9.2967447,22.436677 7.1754244,19.60825 4.7592403,16.367579 5.0541037,13.244288 8.9431905,9.3552016 12.832279,5.4661139 15.963348,5.1634721 19.196239,7.5874346 Z"
     fill-rule="evenodd" />
</svg>
